<?xml version="1.0" standalone="no"?>
<!DOCTYPE svg PUBLIC "-//W3C//DTD SVG 20010904//EN"
 "http://www.w3.org/TR/2001/REC-SVG-20010904/DTD/svg10.dtd">
<svg version="1.0" xmlns="http://www.w3.org/2000/svg"
 width="1024.000000pt" height="1024.000000pt" viewBox="0 0 1024.000000 1024.000000"
 preserveAspectRatio="xMidYMid meet">
<metadata>
Created by potrace 1.14, written by Peter Selinger 2001-2017
</metadata>
<g transform="translate(0.000000,1024.000000) scale(0.100000,-0.100000)"
fill="#000000" stroke="none">
<path d="M5275 10233 c-92 -12 -211 -42 -380 -95 -159 -50 -232 -73 -265 -83
-3 -1 -12 -4 -20 -7 -52 -20 -337 -108 -348 -108 -6 0 -12 -5 -12 -12 0 -6 -3
-9 -6 -6 -3 4 -43 -7 -90 -22 -46 -16 -84 -26 -84 -22 0 4 -4 2 -8 -3 -4 -6
-45 -23 -92 -38 -47 -16 -92 -31 -100 -34 -8 -3 -20 -7 -25 -8 -6 -2 -32 -12
-57 -24 -26 -11 -49 -21 -53 -21 -6 0 -184 -87 -225 -110 -31 -18 -151 -92
-165 -102 -124 -91 -254 -216 -295 -284 -8 -13 -18 -24 -23 -24 -4 0 -6 -4 -3
-9 3 -5 -1 -14 -9 -21 -8 -7 -15 -19 -15 -26 0 -8 -3 -14 -8 -14 -4 0 -13 -15
-20 -32 -8 -18 -17 -42 -22 -53 -7 -18 -21 -53 -25 -65 -1 -3 -4 -12 -8 -20
-14 -35 -28 -134 -29 -207 -2 -101 10 -182 40 -280 6 -17 8 -34 4 -37 -3 -3 0
-6 6 -6 7 0 12 -7 12 -16 0 -29 73 -168 169 -322 129 -207 140 -224 152 -247
5 -11 28 -47 50 -80 22 -33 42 -68 45 -77 4 -10 10 -18 15 -18 5 0 9 -6 9 -14
0 -23 104 -220 158 -297 70 -101 158 -190 248 -250 72 -49 182 -100 240 -113
16 -4 40 -9 54 -12 50 -12 233 -11 291 1 32 7 59 11 59 8 0 -2 8 1 18 6 11 6
30 12 43 14 13 3 67 21 119 42 52 20 100 38 105 39 37 9 102 29 110 34 6 4 15
7 20 8 11 2 192 61 215 71 8 3 20 7 25 8 6 2 53 17 105 35 52 18 100 33 105
35 6 1 17 5 25 8 8 4 58 20 110 38 52 17 102 33 110 36 48 18 45 42 44 -423 0
-239 4 -438 8 -440 4 -3 5 -13 0 -22 -6 -15 -8 -35 -3 -52 1 -3 4 -72 6 -155
3 -82 7 -177 9 -210 3 -33 8 -103 12 -155 3 -52 8 -111 9 -130 2 -19 7 -64 10
-100 4 -36 8 -76 10 -89 3 -14 7 -51 10 -84 4 -32 9 -68 11 -80 3 -12 7 -39 9
-61 4 -33 11 -74 29 -178 2 -13 11 -57 20 -98 9 -41 17 -84 19 -95 1 -11 6
-26 11 -33 4 -7 5 -16 2 -19 -3 -3 1 -21 9 -39 8 -19 12 -34 10 -34 -2 0 0
-13 5 -30 8 -27 7 -29 -10 -20 -10 5 -24 16 -32 22 -23 22 -156 108 -166 108
-6 0 -12 4 -14 9 -5 14 -242 134 -334 169 -105 40 -212 69 -324 88 -19 3 -38
8 -41 10 -22 13 -276 20 -394 11 -102 -8 -311 -45 -355 -64 -8 -3 -22 -7 -30
-8 -18 -3 -197 -62 -225 -75 -53 -24 -151 -65 -155 -66 -21 -2 -302 -154 -312
-168 -4 -6 -8 -8 -8 -4 0 4 -37 -16 -83 -45 -111 -70 -110 -69 -141 -91 -27
-19 -28 -19 -79 1 -29 12 -83 32 -122 46 -38 14 -79 29 -90 33 -11 4 -23 8
-27 8 -3 1 -10 4 -14 8 -4 5 -17 8 -29 8 -11 0 -26 5 -33 12 -7 7 -12 9 -12 5
0 -3 -12 -2 -27 4 -45 17 -269 76 -398 104 -142 32 -183 39 -255 49 -19 3 -46
8 -60 11 -14 3 -41 8 -60 10 -19 2 -51 6 -70 9 -77 11 -137 18 -180 22 -25 2
-58 6 -75 8 -161 24 -733 24 -855 1 -40 -8 -90 -29 -90 -39 0 -5 -3 -6 -7 -3
-3 4 -27 -15 -53 -41 -32 -32 -54 -66 -69 -107 l-22 -60 3 -2135 3 -2135 28
-50 c36 -63 88 -111 152 -139 79 -35 353 -127 425 -141 8 -2 15 -4 15 -5 0 -2
-4 -1 175 -44 80 -19 161 -37 180 -40 72 -13 91 -16 121 -20 17 -3 44 -8 60
-11 34 -8 50 -10 129 -20 30 -3 62 -9 70 -11 8 -3 42 -7 75 -10 33 -3 71 -7
85 -10 14 -3 52 -7 85 -10 71 -6 131 -12 200 -18 58 -6 178 -13 355 -23 281
-15 1101 -8 1395 13 55 4 128 8 162 8 35 1 63 3 63 6 0 3 24 5 53 6 49 1 183
10 272 19 22 2 67 7 100 10 33 3 78 8 100 11 22 2 65 6 95 9 30 2 75 7 100 10
25 3 65 7 90 10 25 3 65 8 90 11 25 3 65 7 90 9 25 3 54 6 65 9 11 2 49 7 85
11 36 4 74 9 84 11 11 2 40 6 65 9 53 6 112 14 156 21 17 2 50 7 75 11 50 6
75 11 75 13 0 1 18 3 40 5 22 2 54 6 70 9 17 2 75 12 130 21 55 9 112 18 127
20 15 2 35 6 45 9 10 2 38 7 63 10 25 3 56 8 70 11 14 3 39 7 55 10 17 3 41 7
55 10 14 3 36 7 50 9 14 3 50 10 80 16 30 6 69 13 85 15 17 2 41 7 55 10 14 3
40 8 59 11 18 3 43 8 55 10 11 2 57 11 101 19 44 9 95 20 115 25 19 5 49 11
65 13 17 3 41 8 55 11 14 3 39 8 55 11 17 3 39 8 50 10 44 10 252 55 275 60
14 3 43 9 65 14 74 18 140 33 155 36 8 2 53 12 100 24 47 11 108 25 135 31 70
16 73 17 140 35 64 18 82 22 129 31 16 2 32 6 35 8 6 4 52 10 166 22 49 5 138
20 275 47 8 2 35 9 60 17 25 7 50 14 55 16 27 6 155 60 190 81 22 13 48 26 58
30 9 3 17 9 17 14 0 5 5 9 11 9 27 0 172 133 235 215 29 38 88 134 89 145 1 3
11 27 23 54 13 28 25 61 29 75 3 14 10 32 16 39 5 6 7 12 4 12 -3 0 -1 15 4
33 25 85 33 171 33 332 0 133 -10 301 -19 315 -2 3 -6 26 -10 50 -8 56 -13 88
-20 118 -3 12 -7 32 -10 45 -3 12 -7 34 -10 49 -3 15 -10 40 -16 55 -6 15 -10
29 -10 31 2 5 -12 59 -44 172 -34 116 -40 135 -52 168 -3 9 -8 24 -10 32 -5
20 -9 31 -17 55 -21 56 -26 75 -31 135 -7 65 -9 87 -19 210 -3 36 -8 85 -11
110 -3 25 -7 70 -10 100 -3 30 -7 71 -9 90 -3 19 -8 60 -11 90 -3 30 -8 71
-11 90 -5 34 -8 59 -18 145 -2 22 -7 56 -10 75 -10 62 -17 114 -21 155 -2 22
-7 51 -10 65 -3 14 -8 41 -10 60 -6 53 -20 141 -28 175 -3 11 -8 43 -11 70 -4
28 -9 64 -13 80 -4 17 -7 37 -8 45 -1 8 -5 33 -10 55 -4 22 -9 49 -11 60 -3
11 -7 34 -10 50 -3 17 -7 39 -9 50 -1 11 -15 76 -29 145 -15 69 -29 136 -31
150 -3 14 -9 40 -14 58 -5 17 -8 32 -6 32 3 0 0 11 -5 26 -6 14 -12 37 -15 52
-9 49 -13 67 -25 112 -7 25 -14 53 -16 62 -2 10 -6 26 -8 36 -5 20 -61 235
-81 307 -8 28 -23 82 -35 120 -12 39 -25 84 -30 100 -11 39 -50 166 -57 185
-4 8 -7 18 -7 22 -1 3 -4 10 -9 14 -4 4 -7 18 -7 30 0 13 -4 25 -9 28 -4 3
-12 20 -16 38 -4 18 -8 35 -9 38 -1 3 -6 19 -13 35 -17 45 -26 69 -28 75 -1 3
-5 13 -8 23 -4 9 -10 25 -14 35 -3 9 -7 19 -8 22 -9 25 -106 274 -120 305 -7
17 -25 59 -40 95 -65 151 -205 441 -281 580 -72 130 -86 156 -105 185 -10 17
-22 37 -26 45 -3 8 -9 17 -12 20 -3 3 -17 26 -31 53 -13 26 -28 47 -32 47 -5
0 -8 4 -8 10 0 11 -132 214 -155 236 -8 8 -15 20 -15 25 0 5 -5 15 -10 22 -40
47 -54 65 -68 90 -9 15 -20 27 -24 27 -4 0 -8 5 -8 11 0 6 -6 16 -12 23 -7 7
-40 48 -73 91 -65 83 -63 81 -145 176 -126 145 -339 364 -445 458 -28 24 -68
60 -91 80 -23 20 -58 50 -78 66 -21 17 -43 35 -50 42 -8 7 -71 55 -142 108
-71 52 -140 104 -154 115 -14 11 -31 20 -37 20 -7 0 -13 4 -13 8 0 5 -16 17
-36 28 -20 11 -57 49 -87 89 -27 39 -54 72 -59 73 -4 2 -8 8 -8 12 0 5 -25 35
-55 66 -30 32 -55 62 -55 67 0 6 -2 8 -5 5 -3 -3 -20 9 -38 26 -37 36 -106 95
-133 114 -69 48 -252 142 -276 142 -8 0 -18 4 -24 10 -5 5 -22 11 -37 12 -15
1 -27 5 -27 9 0 3 -6 6 -12 7 -29 3 -75 11 -98 17 -29 8 -282 14 -325 8z"/>
</g>
</svg>
